<?xml version="1.0" encoding="UTF-8" standalone="no"?>
<svg
   xmlns:dc="http://purl.org/dc/elements/1.1/"
   xmlns:cc="http://creativecommons.org/ns#"
   xmlns:rdf="http://www.w3.org/1999/02/22-rdf-syntax-ns#"
   xmlns:svg="http://www.w3.org/2000/svg"
   xmlns="http://www.w3.org/2000/svg"
   xmlns:sodipodi="http://sodipodi.sourceforge.net/DTD/sodipodi-0.dtd"
   xmlns:inkscape="http://www.inkscape.org/namespaces/inkscape"
   height="337.90982pt"
   viewBox="-54 0 401.98242 338.56995"
   width="401.98242pt"
   version="1.1"
   id="svg124"
   sodipodi:docname="cry-owl.svg"
   inkscape:version="0.92.2 5c3e80d, 2017-08-06">
  <metadata
     id="metadata130">
    <rdf:RDF>
      <cc:Work
         rdf:about="">
        <dc:format>image/svg+xml</dc:format>
        <dc:type
           rdf:resource="http://purl.org/dc/dcmitype/StillImage" />
        <dc:title></dc:title>
      </cc:Work>
    </rdf:RDF>
  </metadata>
  <defs
     id="defs128" />
  <sodipodi:namedview
     pagecolor="#ffffff"
     bordercolor="#666666"
     borderopacity="1"
     objecttolerance="10"
     gridtolerance="10"
     guidetolerance="10"
     inkscape:pageopacity="0"
     inkscape:pageshadow="2"
     inkscape:window-width="1440"
     inkscape:window-height="808"
     id="namedview126"
     showgrid="false"
     inkscape:zoom="0.87475538"
     inkscape:cx="369.39844"
     inkscape:cy="256.93245"
     inkscape:window-x="0"
     inkscape:window-y="1"
     inkscape:window-maximized="1"
     inkscape:current-layer="svg124" />
  <path
     d="m 146.8614,330.97621 c 123.46875,0 185.64063,-48.04297 192.89454,-126.90625 C 347.18172,123.28481 298.22078,56.484023 298.22078,56.484023 323.1114,32.378554 331.28719,7.792617 331.28719,7.792617 243.69344,44.85121 146.86141,40.925429 146.86141,40.925429 c 0,0 -96.828126,3.925781 -184.425782,-33.132812 0,0 8.175781,24.585937 33.0664061,48.691406 0,0 -48.9609381,66.800787 -41.5351561,147.585937 7.253906,78.86328 69.425781,126.90625 192.894522,126.90625 z m 0,0"
     id="path102"
     inkscape:connector-curvature="0"
     style="fill:#dd8858" />
  <path
     d="m 339.75594,177.06996 c -7.25391,78.86328 -69.42579,126.90625 -192.89454,126.90625 -123.468741,0 -185.640616,-48.04297 -192.894522,-126.90625 -0.105469,-1.15234 -0.195313,-2.30078 -0.277344,-3.44531 -0.691406,9.83984 -0.679688,20.02344 0.277344,30.44531 7.253906,78.86328 69.425781,126.90625 192.894522,126.90625 123.46875,0 185.64063,-48.04297 192.89454,-126.90625 0.95703,-10.42187 0.96875,-20.60156 0.27734,-30.44531 -0.082,1.14453 -0.17188,2.29297 -0.27734,3.44531 z m 0,0"
     id="path104"
     inkscape:connector-curvature="0"
     style="fill:#d97f4a" />
  <path
     d="m 243.69344,87.804336 c -61.5586,-22.324219 -96.83204,31.894534 -96.83204,31.894534 0,0 -35.26953,-54.218753 -96.828116,-31.894534 C -11.52531,110.13246 -14.05656,202.78481 11.232503,243.15199 c 21.652343,34.5625 78.390621,45.8711 115.238277,5.51563 -2.35156,-5.86328 -3.71875,-12.40235 -3.71875,-18.59766 0,-17.44922 10.79687,-25.52734 24.10937,-25.52734 13.31641,0 24.10938,8.07812 24.10938,25.52734 0,6.19531 -1.36328,12.73438 -3.71484,18.59766 36.84375,40.35547 93.58203,29.04297 115.23828,-5.51563 25.28906,-40.36328 22.75781,-133.01953 -38.80078,-155.347654 z m 0,0"
     id="path106"
     inkscape:connector-curvature="0"
     style="fill:#ffe9c8" />
  <path
     d="M 123.06062,225.19887 C 86.212974,261.31606 32.228596,249.66371 11.232503,216.15199 3.5879721,203.95277 -1.5096849,186.9684 -3.2089039,168.59731 c -2.605468,28 3.13281299,56.5039 14.4414069,74.55468 21.652343,34.5625 78.390621,45.8711 115.238277,5.51563 -2.35156,-5.86328 -3.71875,-12.40235 -3.71875,-18.59766 0,-1.71484 0.10937,-3.33594 0.30859,-4.87109 z m 0,0"
     id="path108"
     inkscape:connector-curvature="0"
     style="fill:#ffdca7" />
  <path
     d="m 282.49031,216.1559 c -20.99609,33.50781 -74.98047,45.16016 -111.82812,9.04297 0.20312,1.53515 0.30859,3.15625 0.30859,4.87109 0,6.19531 -1.36719,12.73438 -3.71875,18.59766 36.84766,40.35937 93.58594,29.04687 115.23828,-5.51172 11.30859,-18.05078 17.04688,-46.55859 14.44141,-74.55859 -1.69922,18.37109 -6.79688,35.35546 -14.44141,47.55859 z m 0,0"
     id="path110"
     inkscape:connector-curvature="0"
     style="fill:#ffdca7" />
  <path
     d="m 170.97078,230.06996 c 0,-17.44922 -10.79297,-25.52344 -24.10938,-25.52344 -13.3164,0 -24.10937,8.07422 -24.10937,25.52344 0,17.44922 10.79297,37.66406 24.10937,37.66406 13.31641,0 24.10938,-20.21484 24.10938,-37.66406 z m 0,0"
     id="path112"
     inkscape:connector-curvature="0"
     style="fill:#ffa812" />
  <path
     d="m 146.8614,240.73402 c -9.6289,0 -17.9375,-10.57421 -21.80078,-23.02734 -1.47656,3.42188 -2.30859,7.53125 -2.30859,12.36328 0,17.44922 10.79297,37.66406 24.10937,37.66406 13.31641,0 24.10938,-20.21484 24.10938,-37.66406 0,-4.83203 -0.83203,-8.9414 -2.30859,-12.36328 -3.86329,12.45313 -12.17188,23.02734 -21.80079,23.02734 z m 0,0"
     id="path114"
     inkscape:connector-curvature="0"
     style="fill:#ff9a00" />
  <path
     d="m 68.533284,203.79652 c 11.78906,0 21.02344,-12.07031 21.02344,-27.47265 0,-15.40625 -9.23438,-27.47266 -21.02344,-27.47266 -11.78906,0 -21.02344,12.06641 -21.02344,27.47266 0,15.40234 9.23438,27.47265 21.02344,27.47265 z m 0,0"
     id="path116"
     inkscape:connector-curvature="0" />
  <path
     style="stroke-width:1"
     d="m -37.585408,0.00111572 c -4.84321,-0.07854806 -9.006587,4.80452368 -7.322382,9.87031958 0.335937,1.0117177 8.058576,23.6829857 30.542948,47.2689227 -8.925776,13.730469 -31.500864,52.468792 -38.258676,102.187532 -0.558594,4.10938 2.320642,7.8949 6.430017,8.44958 4.105469,0.5625 7.895391,-2.32015 8.453984,-6.42562 C -29.966078,104.14092 1.0721099,61.109677 1.3807066,60.687803 3.5994527,57.660458 3.2438293,53.465018 0.548519,50.855643 -10.236637,40.41033 -17.728182,29.823245 -22.661777,21.467776 58.502282,50.721682 140.2088,48.429543 146.86114,48.187355 c 6.66407,0.242188 88.39508,2.535275 169.56695,-26.734256 -4.91797,8.328125 -12.40617,18.898141 -23.24992,29.398141 -2.69531,2.613282 -3.05534,6.809218 -0.8366,9.836563 0.47658,0.64453 47.25752,65.479277 40.16377,142.631617 -7.23438,78.66016 -71.42935,120.23443 -185.6442,120.23443 -114.214837,0 -178.409819,-41.57427 -185.644196,-120.23443 -0.378905,-4.15625 -0.616597,-8.41383 -0.698627,-12.65602 -0.08203,-4.14453 -3.547148,-7.44893 -7.652617,-7.35908 -4.148437,0.082 -7.441603,3.50809 -7.363478,7.65262 0.08984,4.60156 0.347676,9.2221 0.761739,13.73772 2.527343,27.46094 11.293149,51.00789 26.136903,70.41024 l 10.913852,12.4344 c 5.730471,5.71484 12.0939012,10.98441 19.1095278,15.79691 39.3641302,23.81402 101.3316562,34.69417 144.4368962,35.23374 49.33985,0 90.27327,-7.57374 122.12484,-22.54249 22.31646,-12.69565 0,0 13.58215,-7.15653 3.00781,-1.76953 5.92572,-3.60943 8.73431,-5.53912 7.01953,-4.8125 13.3908,-10.08991 19.12126,-15.80865 l 10.89479,-12.41093 c 14.84765,-19.40233 23.61786,-42.95176 26.1413,-70.42051 C 353.94417,134.18001 319.65793,74.885955 308.09153,57.135955 330.57591,33.550017 338.2956,10.882656 338.63154,9.8670317 340.62763,3.867032 334.41274,-1.8795815 328.58069,0.5852625 243.52991,36.56573 148.11955,33.214228 147.16642,33.17126 c -0.20312,-0.01172 -0.40694,-0.01172 -0.60616,0 -0.95312,0.03125 -96.366417,3.39447 -181.417203,-32.5859975 -0.910645,-0.38513188 -1.831574,-0.56960085 -2.728465,-0.58414678 z"
     id="path118"
     inkscape:connector-curvature="0"
     sodipodi:nodetypes="scccccccccccccscccccccccccccccccccccs" />
  <path
     d="m 225.18953,203.79652 c 11.78906,0 21.02344,-12.07031 21.02344,-27.47265 0,-15.40625 -9.23438,-27.47266 -21.02344,-27.47266 -11.78906,0 -21.02344,12.06641 -21.02344,27.47266 0,15.40234 9.23438,27.47265 21.02344,27.47265 z m 0,0"
     id="path120"
     inkscape:connector-curvature="0" />
  <path
     d="m 62.923914,281.55434 c 22.65234,2.04687 44.175776,-5.19141 61.597646,-20.5 5.62891,8.41406 13.42969,14.19922 22.33984,14.19922 8.91407,0 16.71485,-5.78516 22.33985,-14.20313 15.48828,13.61328 34.21484,20.84375 54.09765,20.84375 2.48047,0 4.98829,-0.11328 7.5,-0.33984 24.32422,-2.19532 46.08204,-15.07032 58.21485,-34.42969 17.60937,-28.10547 21.375,-74.69531 8.94922,-110.78125 C 288.42,108.62074 270.57625,89.327773 246.36531,80.550429 211.61922,67.94496 184.63484,78.136367 168.12312,88.901992 158.62703,95.089492 151.49422,102.12074 146.8614,107.39418 142.2325,102.12074 135.09578,95.089492 125.60359,88.901992 109.08797,78.136367 82.107504,67.94496 47.361404,80.550429 23.146565,89.327773 5.3067221,108.62074 -4.2401539,136.3434 -16.662028,172.42934 -12.90031,219.01918 4.7129721,247.12465 16.841878,266.48793 38.603596,279.35902 62.923914,281.55434 Z M 146.8614,260.23793 c -7.26171,0 -16.6289,-14.64453 -16.6289,-30.19922 0,-15.69922 10.41797,-18.04687 16.6289,-18.04687 14.46875,0 16.62891,11.30859 16.62891,18.04687 0,15.55469 -9.36719,30.19922 -16.62891,30.19922 z M 9.9590651,141.23012 C 15.548909,124.99574 27.462972,103.73793 52.478594,94.667617 c 23.04297,-8.355469 44.73438,-6.160157 64.476556,6.523443 15.16407,9.74609 23.53907,22.33203 23.61329,22.4414 1.38281,2.125 3.74609,3.39844 6.28125,3.40625 h 0.0195 c 2.52343,0 4.89062,-1.27734 6.27734,-3.39062 0.082,-0.125 8.46094,-12.71094 23.62109,-22.45703 19.74219,-12.6836 41.4375,-14.882818 64.48047,-6.523443 25.01172,9.070313 36.92578,30.328123 42.51563,46.562503 10.89453,31.63672 7.67969,73.73437 -7.47656,97.92187 -9.65235,15.41016 -27.16407,25.66797 -46.83985,27.44532 -19.83594,1.79296 -38.6875,-5.22266 -53.54687,-19.81641 1.67968,-5.44141 2.60937,-11.17578 2.60937,-16.74219 0,-20.08594 -12.42187,-33.0625 -31.64844,-33.0625 -19.22656,0 -31.64843,12.97656 -31.64843,33.0625 0,5.56641 0.92968,11.30469 2.61328,16.7461 -14.86719,14.58984 -33.722656,21.60937 -53.550776,19.8164 C 44.59969,264.81996 27.087972,254.56215 17.435628,239.15199 2.2832841,214.96449 -0.93155991,172.86684 9.9590651,141.23012 Z m 0,0"
     id="path122"
     inkscape:connector-curvature="0" />
  <g
     id="g256"
     transform="matrix(0.17216653,0,0,0.17216653,24.458652,203.79652)">
    <path
       id="path198"
       d="M 438.4,329.6 C 438.4,430.933 356.267,512 256,512 155.733,512 73.6,430.933 73.6,329.6 73.6,228.267 256,0 256,0 c 0,0 182.4,229.333 182.4,329.6 z"
       style="fill:#84dbff"
       inkscape:connector-curvature="0" />
    <path
       id="path200"
       d="m 256,464 c -73.6,0 -134.4,-59.733 -134.4,-134.4 0,-8.533 7.467,-16 16,-16 8.533,0 16,7.467 16,16 0,56.533 45.867,102.4 102.4,102.4 8.533,0 16,7.467 16,16 0,8.533 -7.467,16 -16,16 z"
       style="fill:#ffffff"
       inkscape:connector-curvature="0" />
    <g
       id="g202" />
    <g
       id="g204" />
    <g
       id="g206" />
    <g
       id="g208" />
    <g
       id="g210" />
    <g
       id="g212" />
    <g
       id="g214" />
    <g
       id="g216" />
    <g
       id="g218" />
    <g
       id="g220" />
    <g
       id="g222" />
    <g
       id="g224" />
    <g
       id="g226" />
    <g
       id="g228" />
    <g
       id="g230" />
  </g>
</svg>
